<svg version="1.1" xmlns="http://www.w3.org/2000/svg" xmlns:xlink="http://www.w3.org/1999/xlink" xml:space="preserve" xmlns:serif="http://www.serif.com/" style="fill-rule:evenodd;clip-rule:evenodd;stroke-linejoin:round;stroke-miterlimit:2;" viewBox="356.67 216.5 104.03 121.54"><g xmlns="http://www.w3.org/2000/svg" transform="matrix(8.669,0,0,8.669,-2434.66,-7709.99)">
        <g id="path9411" transform="matrix(1,0,0,1,-2039.01,-148)">
            <path d="M2366,1063.36L2366,1064.36L2365,1064.36L2365,1065.36L2364,1065.36L2364,1066.36L2363,1066.36L2363,1067.36L2362,1067.36L2362,1070.36L2363,1070.36L2363,1071.36L2365,1071.36L2365,1070.36L2366,1070.36L2366,1072.36L2365,1072.36L2365,1073.36L2364,1073.36L2364,1075.36L2372,1075.36L2372,1073.36L2371,1073.36L2371,1071.36L2372,1071.36L2372,1066.36L2371,1066.36L2371,1065.36L2370,1065.36L2370,1064.36L2367,1064.36L2367,1063.36L2366,1063.36Z" style="fill:rgb(252,252,252);"/>
        </g>
        <g id="path9451" transform="matrix(1,0,0,1,-2149.01,-148)">
            <path d="M2476,1062.36L2476,1063.36L2477,1063.36L2477,1062.36L2476,1062.36ZM2477,1063.36L2477,1064.36L2480,1064.36L2480,1063.36L2477,1063.36ZM2480,1064.36L2480,1065.36L2481,1065.36L2481,1064.36L2480,1064.36ZM2481,1065.36L2481,1066.36L2482,1066.36L2482,1065.36L2481,1065.36ZM2482,1066.36L2482,1071.36L2483,1071.36L2483,1066.36L2482,1066.36ZM2482,1071.36L2481,1071.36L2481,1073.36L2482,1073.36L2482,1071.36ZM2482,1073.36L2482,1075.36L2474,1075.36L2474,1073.36L2473,1073.36L2473,1076.36L2483,1076.36L2483,1073.36L2482,1073.36ZM2474,1073.36L2475,1073.36L2475,1072.36L2476,1072.36L2476,1070.36L2475,1070.36L2475,1071.36L2473,1071.36L2473,1072.36L2474,1072.36L2474,1073.36ZM2473,1071.36L2473,1070.36L2472,1070.36L2472,1071.36L2473,1071.36ZM2472,1070.36L2472,1067.36L2471,1067.36L2471,1070.36L2472,1070.36ZM2472,1067.36L2473,1067.36L2473,1066.36L2472,1066.36L2472,1067.36ZM2473,1066.36L2474,1066.36L2474,1065.36L2473,1065.36L2473,1066.36ZM2474,1065.36L2475,1065.36L2475,1064.36L2474,1064.36L2474,1065.36ZM2475,1064.36L2476,1064.36L2476,1063.36L2475,1063.36L2475,1064.36Z" style="fill:rgb(4,4,4);"/>
        </g>
    </g></svg>