<svg version="1.1" xmlns="http://www.w3.org/2000/svg" xmlns:xlink="http://www.w3.org/1999/xlink" xml:space="preserve" xmlns:serif="http://www.serif.com/" style="fill-rule:evenodd;clip-rule:evenodd;stroke-linejoin:round;stroke-miterlimit:2;" viewBox="27.23 216.5 86.72 121.54"><g xmlns="http://www.w3.org/2000/svg" transform="matrix(8.669,0,0,8.669,-2434.66,-7709.99)">
        <g id="path9407" transform="matrix(1,0,0,1,-2039.01,415.362)">
            <path d="M2327,500L2327,501L2326,501L2326,503L2327,503L2327,504L2326,504L2326,505L2325,505L2325,507L2326,507L2326,508L2325,508L2325,509L2324,509L2324,512L2332,512L2332,509L2331,509L2331,508L2330,508L2330,507L2331,507L2331,505L2330,505L2330,504L2329,504L2329,503L2330,503L2330,501L2329,501L2329,500L2327,500Z" style="fill:rgb(252,252,252);"/>
        </g>
        <g id="path9447" transform="matrix(1,0,0,1,-2149.01,-148)">
            <path d="M2437,1062.36L2437,1063.36L2439,1063.36L2439,1062.36L2437,1062.36ZM2439,1063.36L2439,1064.36L2440,1064.36L2440,1063.36L2439,1063.36ZM2440,1064.36L2440,1066.36L2441,1066.36L2441,1064.36L2440,1064.36ZM2440,1066.36L2439,1066.36L2439,1067.36L2440,1067.36L2440,1066.36ZM2440,1067.36L2440,1068.36L2441,1068.36L2441,1067.36L2440,1067.36ZM2441,1068.36L2441,1070.36L2442,1070.36L2442,1068.36L2441,1068.36ZM2441,1070.36L2440,1070.36L2440,1071.36L2441,1071.36L2441,1070.36ZM2441,1071.36L2441,1072.36L2442,1072.36L2442,1071.36L2441,1071.36ZM2442,1072.36L2442,1075.36L2434,1075.36L2434,1072.36L2433,1072.36L2433,1076.36L2443,1076.36L2443,1072.36L2442,1072.36ZM2434,1072.36L2435,1072.36L2435,1071.36L2434,1071.36L2434,1072.36ZM2435,1071.36L2436,1071.36L2436,1070.36L2435,1070.36L2435,1071.36ZM2435,1070.36L2435,1068.36L2434,1068.36L2434,1070.36L2435,1070.36ZM2435,1068.36L2436,1068.36L2436,1067.36L2435,1067.36L2435,1068.36ZM2436,1067.36L2437,1067.36L2437,1066.36L2436,1066.36L2436,1067.36ZM2436,1066.36L2436,1064.36L2435,1064.36L2435,1066.36L2436,1066.36ZM2436,1064.36L2437,1064.36L2437,1063.36L2436,1063.36L2436,1064.36Z" style="fill:rgb(4,4,4);"/>
        </g>
    </g></svg>