<svg version="1.1" xmlns="http://www.w3.org/2000/svg" xmlnsXlink="http://www.w3.org/1999/xlink" xmlSpace="preserve" xmlnsSerif="http://www.serif.com/" style="fill-rule:evenodd;clip-rule:evenodd;stroke-linejoin:round;stroke-miterlimit:2;" viewBox="252.63 216.5 86.7 121.54"><g xmlns="http://www.w3.org/2000/svg" transform="matrix(8.669,0,0,8.669,-2434.66,-7709.99)">
        <g id="path9409" transform="matrix(1,0,0,1,-2039.01,-148)">
            <path d="M2353,1063.36L2353,1064.36L2352,1064.36L2352,1065.36L2351,1065.36L2351,1068.36L2352,1068.36L2352,1069.36L2351,1069.36L2351,1070.36L2352,1070.36L2352,1072.36L2351,1072.36L2351,1073.36L2350,1073.36L2350,1075.36L2358,1075.36L2358,1073.36L2357,1073.36L2357,1072.36L2356,1072.36L2356,1070.36L2357,1070.36L2357,1069.36L2356,1069.36L2356,1068.36L2357,1068.36L2357,1065.36L2356,1065.36L2356,1064.36L2355,1064.36L2355,1063.36L2353,1063.36Z" style="fill:rgb(252,252,252);"/>
        </g>
        <g id="path9449" transform="matrix(1,0,0,1,-2149.01,-148)">
            <path d="M2463,1062.36L2463,1063.36L2465,1063.36L2465,1062.36L2463,1062.36ZM2465,1063.36L2465,1064.36L2466,1064.36L2466,1063.36L2465,1063.36ZM2466,1064.36L2466,1065.36L2467,1065.36L2467,1064.36L2466,1064.36ZM2467,1065.36L2467,1068.36L2468,1068.36L2468,1065.36L2467,1065.36ZM2467,1068.36L2466,1068.36L2466,1069.36L2467,1069.36L2467,1068.36ZM2467,1069.36L2467,1070.36L2468,1070.36L2468,1069.36L2467,1069.36ZM2467,1070.36L2466,1070.36L2466,1072.36L2467,1072.36L2467,1070.36ZM2467,1072.36L2467,1073.36L2468,1073.36L2468,1072.36L2467,1072.36ZM2468,1073.36L2468,1075.36L2460,1075.36L2460,1073.36L2459,1073.36L2459,1076.36L2469,1076.36L2469,1073.36L2468,1073.36ZM2460,1073.36L2461,1073.36L2461,1072.36L2460,1072.36L2460,1073.36ZM2461,1072.36L2462,1072.36L2462,1070.36L2461,1070.36L2461,1072.36ZM2461,1070.36L2461,1069.36L2460,1069.36L2460,1070.36L2461,1070.36ZM2461,1069.36L2462,1069.36L2462,1068.36L2461,1068.36L2461,1069.36ZM2461,1068.36L2461,1065.36L2460,1065.36L2460,1068.36L2461,1068.36ZM2461,1065.36L2462,1065.36L2462,1064.36L2461,1064.36L2461,1065.36ZM2462,1064.36L2463,1064.36L2463,1063.36L2462,1063.36L2462,1064.36Z" style="fill:rgb(4,4,4);"/>
        </g>
    </g></svg>