<svg version="1.1" xmlns="http://www.w3.org/2000/svg" xmlnsXlink="http://www.w3.org/1999/xlink" xmlSpace="preserve" xmlnsSerif="http://www.serif.com/" style="fill-rule:evenodd;clip-rule:evenodd;stroke-linejoin:round;stroke-miterlimit:2;" viewBox="635.18 58.72 138.97 121.75"><g xmlns="http://www.w3.org/2000/svg" transform="matrix(8.68453,0,0,8.68453,252.893,-7881.97)">
        <g id="rect8854" transform="matrix(1,0,0,1,-2348.98,-148)">
            <path d="M2400,1063.36L2400,1064.36L2399,1064.36L2399,1066.36L2400,1066.36L2400,1067.36L2399,1067.36L2399,1066.36L2398,1066.36L2398,1065.36L2395,1065.36L2395,1066.36L2394,1066.36L2394,1069.36L2395,1069.36L2395,1070.36L2397,1070.36L2397,1071.36L2396,1071.36L2396,1072.36L2398,1072.36L2398,1073.36L2397,1073.36L2397,1075.36L2405,1075.36L2405,1073.36L2404,1073.36L2404,1072.36L2406,1072.36L2406,1071.36L2405,1071.36L2405,1070.36L2407,1070.36L2407,1069.36L2408,1069.36L2408,1066.36L2407,1066.36L2407,1065.36L2404,1065.36L2404,1066.36L2403,1066.36L2403,1067.36L2402,1067.36L2402,1066.36L2403,1066.36L2403,1064.36L2402,1064.36L2402,1063.36L2400,1063.36Z" style="fill:rgb(4,4,4);"/>
        </g>
        <g id="path9339" transform="matrix(1,0,0,1,-2458.98,-148)">
            <path d="M2510,1062.36L2510,1063.36L2512,1063.36L2512,1062.36L2510,1062.36ZM2512,1063.36L2512,1064.36L2513,1064.36L2513,1063.36L2512,1063.36ZM2513,1064.36L2513,1066.36L2514,1066.36L2514,1065.36L2517,1065.36L2517,1064.36L2513,1064.36ZM2517,1065.36L2517,1066.36L2518,1066.36L2518,1065.36L2517,1065.36ZM2518,1066.36L2518,1069.36L2519,1069.36L2519,1066.36L2518,1066.36ZM2518,1069.36L2517,1069.36L2517,1070.36L2518,1070.36L2518,1069.36ZM2517,1070.36L2515,1070.36L2515,1071.36L2516,1071.36L2516,1072.36L2517,1072.36L2517,1070.36ZM2516,1072.36L2514,1072.36L2514,1073.36L2515,1073.36L2515,1075.36L2507,1075.36L2507,1073.36L2508,1073.36L2508,1072.36L2506,1072.36L2506,1076.36L2516,1076.36L2516,1072.36ZM2506,1072.36L2506,1071.36L2507,1071.36L2507,1070.36L2505,1070.36L2505,1072.36L2506,1072.36ZM2505,1070.36L2505,1069.36L2504,1069.36L2504,1070.36L2505,1070.36ZM2504,1069.36L2504,1066.36L2503,1066.36L2503,1069.36L2504,1069.36ZM2504,1066.36L2505,1066.36L2505,1065.36L2504,1065.36L2504,1066.36ZM2505,1065.36L2508,1065.36L2508,1066.36L2509,1066.36L2509,1064.36L2505,1064.36L2505,1065.36ZM2509,1064.36L2510,1064.36L2510,1063.36L2509,1063.36L2509,1064.36ZM2509,1066.36L2509,1067.36L2510,1067.36L2510,1066.36L2509,1066.36ZM2513,1066.36L2512,1066.36L2512,1067.36L2513,1067.36L2513,1066.36Z" style="fill:rgb(252,252,252);"/>
        </g>
    </g></svg>