<svg version="1.1" xmlns="http://www.w3.org/2000/svg" xmlnsXlink="http://www.w3.org/1999/xlink" xmlSpace="preserve" xmlnsSerif="http://www.serif.com/" style="fill-rule:evenodd;clip-rule:evenodd;stroke-linejoin:round;stroke-miterlimit:2;" viewBox="478.85 58.72 138.97 121.75"><g xmlns="http://www.w3.org/2000/svg" transform="matrix(8.68453,0,0,8.68453,252.893,-7881.97)">
        <g id="rect8826" transform="matrix(1,0,0,1,-2348.98,-148)">
            <path d="M2379,1063.36L2379,1065.36L2380,1065.36L2380,1066.36L2378,1066.36L2378,1064.36L2376,1064.36L2376,1066.36L2377,1066.36L2377,1068.36L2378,1068.36L2378,1069.36L2379,1069.36L2379,1070.36L2380,1070.36L2380,1071.36L2379,1071.36L2379,1072.36L2380,1072.36L2380,1073.36L2379,1073.36L2379,1075.36L2387,1075.36L2387,1073.36L2386,1073.36L2386,1072.36L2387,1072.36L2387,1071.36L2386,1071.36L2386,1070.36L2387,1070.36L2387,1069.36L2388,1069.36L2388,1068.36L2389,1068.36L2389,1066.36L2390,1066.36L2390,1064.36L2388,1064.36L2388,1066.36L2386,1066.36L2386,1065.36L2387,1065.36L2387,1063.36L2385,1063.36L2385,1065.36L2384,1065.36L2384,1063.36L2382,1063.36L2382,1065.36L2381,1065.36L2381,1063.36L2379,1063.36Z" style="fill:rgb(4,4,4);"/>
        </g>
        <g id="path9337" transform="matrix(1,0,0,1,-2458.98,-148)">
            <path d="M2489,1062.36L2489,1063.36L2491,1063.36L2491,1062.36L2489,1062.36ZM2491,1063.36L2491,1065.36L2492,1065.36L2492,1063.36L2491,1063.36ZM2492,1063.36L2494,1063.36L2494,1062.36L2492,1062.36L2492,1063.36ZM2494,1063.36L2494,1065.36L2495,1065.36L2495,1063.36L2494,1063.36ZM2495,1063.36L2497,1063.36L2497,1062.36L2495,1062.36L2495,1063.36ZM2497,1063.36L2497,1065.36L2496,1065.36L2496,1066.36L2498,1066.36L2498,1064.36L2500,1064.36L2500,1063.36L2497,1063.36ZM2500,1064.36L2500,1066.36L2501,1066.36L2501,1064.36L2500,1064.36ZM2500,1066.36L2499,1066.36L2499,1068.36L2500,1068.36L2500,1066.36ZM2499,1068.36L2498,1068.36L2498,1069.36L2499,1069.36L2499,1068.36ZM2498,1069.36L2497,1069.36L2497,1070.36L2498,1070.36L2498,1069.36ZM2497,1070.36L2496,1070.36L2496,1071.36L2497,1071.36L2497,1070.36ZM2497,1071.36L2497,1072.36L2498,1072.36L2498,1071.36L2497,1071.36ZM2497,1072.36L2496,1072.36L2496,1073.36L2497,1073.36L2497,1072.36ZM2497,1073.36L2497,1075.36L2489,1075.36L2489,1073.36L2488,1073.36L2488,1076.36L2498,1076.36L2498,1073.36L2497,1073.36ZM2489,1073.36L2490,1073.36L2490,1072.36L2489,1072.36L2489,1073.36ZM2489,1072.36L2489,1071.36L2488,1071.36L2488,1072.36L2489,1072.36ZM2489,1071.36L2490,1071.36L2490,1070.36L2489,1070.36L2489,1071.36ZM2489,1070.36L2489,1069.36L2488,1069.36L2488,1070.36L2489,1070.36ZM2488,1069.36L2488,1068.36L2487,1068.36L2487,1069.36L2488,1069.36ZM2487,1068.36L2487,1066.36L2486,1066.36L2486,1068.36L2487,1068.36ZM2486,1066.36L2486,1064.36L2485,1064.36L2485,1066.36L2486,1066.36ZM2486,1064.36L2488,1064.36L2488,1066.36L2490,1066.36L2490,1065.36L2489,1065.36L2489,1063.36L2486,1063.36L2486,1064.36Z" style="fill:rgb(252,252,252);"/>
        </g>
    </g></svg>