<svg version="1.1" xmlns="http://www.w3.org/2000/svg" xmlnsXlink="http://www.w3.org/1999/xlink" xmlSpace="preserve" xmlnsSerif="http://www.serif.com/" style="fill-rule:evenodd;clip-rule:evenodd;stroke-linejoin:round;stroke-miterlimit:2;" viewBox="140.17 58.72 86.85 121.75"><g xmlns="http://www.w3.org/2000/svg" transform="matrix(8.68453,0,0,8.68453,252.893,-7881.97)">
        <g id="rect8756" transform="matrix(1,0,0,1,-2348.98,-148)">
            <path d="M2337,1063.36L2337,1065.36L2338,1065.36L2338,1073.36L2337,1073.36L2337,1075.36L2345,1075.36L2345,1073.36L2344,1073.36L2344,1065.36L2345,1065.36L2345,1063.36L2343,1063.36L2343,1064.36L2342,1064.36L2342,1063.36L2340,1063.36L2340,1064.36L2339,1064.36L2339,1063.36L2337,1063.36Z" style="fill:rgb(4,4,4);"/>
        </g>
        <g id="path9341" transform="matrix(1,0,0,1,-2458.98,-148)">
            <path d="M2446,1062.36L2446,1065.36L2447,1065.36L2447,1063.36L2449,1063.36L2449,1064.36L2450,1064.36L2450,1063.36L2452,1063.36L2452,1064.36L2453,1064.36L2453,1063.36L2455,1063.36L2455,1065.36L2456,1065.36L2456,1062.36L2446,1062.36ZM2455,1065.36L2454,1065.36L2454,1073.36L2455,1073.36L2455,1065.36ZM2455,1073.36L2455,1075.36L2447,1075.36L2447,1073.36L2446,1073.36L2446,1076.36L2456,1076.36L2456,1073.36L2455,1073.36ZM2447,1073.36L2448,1073.36L2448,1065.36L2447,1065.36L2447,1073.36Z" style="fill:rgb(252,252,252);"/>
        </g>
    </g></svg>